<svg width="148" height="37" viewBox="0 0 148 37" fill="none" xmlns="http://www.w3.org/2000/svg">
<g clip-path="url(#clip0_63_648)">
<g clip-path="url(#clip1_63_648)">
<path d="M10.0824 2.6928C10.045 2.62065 10.0222 2.54185 10.0152 2.46088C10.0083 2.37992 10.0174 2.29839 10.042 2.22094C10.0666 2.14349 10.1062 2.07165 10.1586 2.00952C10.2109 1.94738 10.275 1.89617 10.3472 1.85882C12.5614 0.732831 15.0211 0.175598 17.5044 0.237354C19.9878 0.299111 22.4167 0.977916 24.5722 2.21257C24.643 2.25323 24.7049 2.30749 24.7545 2.37221C24.8042 2.43694 24.8405 2.51085 24.8614 2.58968C24.8823 2.66851 24.8874 2.75071 24.8764 2.83152C24.8654 2.91234 24.8385 2.99018 24.7973 3.06055L17.6762 15.2818C17.6219 15.3754 17.5439 15.4531 17.45 15.507C17.3562 15.5609 17.2499 15.5892 17.1416 15.589H17.1259C17.0151 15.5861 16.907 15.5535 16.813 15.4947C16.719 15.4359 16.6425 15.353 16.5913 15.2546L10.0824 2.6928ZM16.7596 18.8484V18.8471L10.2505 6.28535C10.1749 6.13992 10.0448 6.0303 9.88866 5.98043C9.73253 5.93056 9.563 5.94448 9.4171 6.01917C7.68233 6.90867 6.1403 8.13201 4.87953 9.61899C3.61875 11.106 2.66405 12.8273 2.07021 14.6842C1.47637 16.541 1.2551 18.4969 1.41908 20.4395C1.58306 22.3822 2.12907 24.2733 3.02578 26.0043C3.92248 27.7354 5.15223 29.2723 6.64443 30.5269C8.13663 31.7815 9.8619 32.729 11.7212 33.3151C13.5806 33.9013 15.5373 34.1144 17.4793 33.9424C19.4212 33.7703 21.31 33.2164 23.0373 32.3125C23.1824 32.2366 23.2915 32.1063 23.3409 31.9501C23.3904 31.794 23.376 31.6247 23.301 31.4791L16.7596 18.8484ZM24.3897 30.7219L24.4392 30.821C24.514 30.9671 24.6429 31.0782 24.7984 31.1306C24.8622 31.1518 24.9296 31.1602 24.9966 31.1554C25.0946 31.1527 25.1912 31.1317 25.2815 31.0935C25.507 30.9817 25.7261 30.8577 25.938 30.7219C26.568 30.3564 27.1685 29.9422 27.734 29.4832H23.7456L24.3897 30.7219ZM23.1015 28.2446H29.0841C29.4688 27.8581 29.8248 27.4441 30.1494 27.006H22.4574L23.1015 28.2446ZM21.8257 25.7673H31.0288C31.2825 25.3696 31.5101 24.9559 31.71 24.5287H21.1816L21.8257 25.7673ZM20.5375 23.29H32.255C32.4194 22.8857 32.56 22.4721 32.6762 22.0514H19.8934L20.5375 23.29ZM19.2493 20.8127H32.9858C33.0602 20.404 33.1221 19.9952 33.1592 19.5741H18.6176L19.2493 20.8127ZM25.8884 5.15633C25.8189 5.1131 25.7409 5.08521 25.6598 5.07453C25.5786 5.06385 25.4961 5.07062 25.4177 5.0944C25.3375 5.11272 25.2619 5.1475 25.1959 5.19654C25.1298 5.24558 25.0746 5.30781 25.0338 5.37928L24.6993 5.94906H27.0899C26.7039 5.66352 26.3028 5.3989 25.8884 5.15633ZM28.5887 7.1877H23.9809L23.2625 8.42634H29.7654C29.3989 7.98973 29.0059 7.57607 28.5887 7.1877ZM30.6944 9.66498H22.5317L21.8133 10.9036H31.4499C31.2264 10.4741 30.974 10.0603 30.6944 9.66498ZM32.0445 12.1423H21.0949L20.3765 13.3809H32.5275C32.3902 12.9592 32.229 12.5456 32.0445 12.1423ZM32.8744 14.6195H19.6457L18.9273 15.8582H33.0973C33.0481 15.4412 32.9737 15.0275 32.8744 14.6195ZM33.2212 17.0968H18.2088L17.9116 17.6047C17.8579 17.6941 17.8285 17.796 17.8264 17.9003C17.8242 18.0046 17.8493 18.1076 17.8992 18.1992L17.9735 18.3355H33.246C33.2583 18.2116 33.2583 18.0754 33.2583 17.9515C33.2583 17.6666 33.246 17.3817 33.2212 17.0968Z" fill="white"/>
<path d="M9.79779 5.40696C9.57075 4.97673 9.03637 4.80993 8.61954 5.06072C5.31966 7.04608 2.85427 10.182 1.71086 13.8808C0.480492 17.861 0.881619 22.1669 2.826 25.8512C4.77038 29.5356 8.09873 32.2967 12.0789 33.5271C15.7777 34.6705 19.7579 34.4049 23.2591 32.801C23.7013 32.5985 23.8652 32.0632 23.6382 31.6329L16.718 18.52L9.79779 5.40696Z" fill="white"/>
</g>
<path d="M55.3586 6.48689C57.08 6.48689 58.5464 6.76318 59.7578 7.31574C60.9692 7.86831 61.8937 8.66528 62.5313 9.70665C63.1689 10.748 63.4876 12.0125 63.4876 13.5002C63.4876 14.9879 63.1689 16.2524 62.5313 17.2938C61.8937 18.3352 60.9692 19.1321 59.7578 19.6847C58.5464 20.2373 57.08 20.5136 55.3586 20.5136H51.1824V27.5269H45.6993V6.48689H55.3586ZM54.4978 16.4012C55.6455 16.4012 56.5062 16.1674 57.08 15.6999C57.6751 15.2111 57.9726 14.4778 57.9726 13.5002C57.9726 12.5226 57.6751 11.8 57.08 11.3325C56.5062 10.8437 55.6455 10.5993 54.4978 10.5993H51.1824V16.4012H54.4978ZM66.6108 27.5269V11.5875H71.3926L71.6157 15.0304C72.0195 13.8403 72.6146 12.9158 73.4009 12.257C74.2085 11.5981 75.2287 11.2687 76.4613 11.2687C76.8651 11.2687 77.2051 11.3006 77.4814 11.3643C77.779 11.4281 78.0127 11.5131 78.1828 11.6194L77.6408 16.0824C77.4283 15.9974 77.152 15.9336 76.812 15.8911C76.4932 15.8274 76.1 15.7955 75.6325 15.7955C74.9949 15.7955 74.3998 15.9336 73.8472 16.2099C73.2947 16.4862 72.8484 16.9006 72.5083 17.4532C72.1895 17.9845 72.0302 18.6646 72.0302 19.4934V27.5269H66.6108ZM87.9003 27.8457C86.1363 27.8457 84.6062 27.5163 83.3098 26.8574C82.0346 26.1986 81.0464 25.2529 80.345 24.0202C79.6437 22.7876 79.293 21.2999 79.293 19.5572C79.293 17.8145 79.6437 16.3268 80.345 15.0942C81.0464 13.8615 82.024 12.9158 83.2779 12.257C84.553 11.5981 86.0088 11.2687 87.6453 11.2687C89.3242 11.2687 90.7481 11.5981 91.917 12.257C93.1072 12.8945 94.0104 13.7871 94.6267 14.9348C95.243 16.0612 95.5512 17.3576 95.5512 18.824C95.5512 19.2065 95.5406 19.5891 95.5193 19.9716C95.4981 20.3542 95.4662 20.6729 95.4237 20.928H82.7997V18.027H93.0328L90.4506 19.0153C90.4506 17.7401 90.2168 16.7625 89.7493 16.0824C89.303 15.4023 88.6016 15.0623 87.6453 15.0623C86.9652 15.0623 86.3807 15.2217 85.8919 15.5405C85.4244 15.8593 85.0631 16.3587 84.8081 17.0388C84.5743 17.7188 84.4574 18.5902 84.4574 19.6528C84.4574 20.6942 84.5955 21.5443 84.8718 22.2031C85.1481 22.8407 85.5413 23.3083 86.0513 23.6058C86.5614 23.8821 87.1777 24.0202 87.9003 24.0202C88.7079 24.0202 89.3455 23.8608 89.813 23.542C90.3018 23.2233 90.6631 22.7769 90.8969 22.2031L95.2324 23.6377C94.9349 24.5515 94.4142 25.3273 93.6704 25.9648C92.9478 26.5811 92.0764 27.0487 91.0563 27.3675C90.0574 27.6863 89.0054 27.8457 87.9003 27.8457ZM105.277 27.8457C103.684 27.8457 102.196 27.5906 100.814 27.0806C99.4543 26.5493 98.3279 25.7948 97.4353 24.8172L99.9856 21.8206C100.517 22.5007 101.218 23.0745 102.09 23.542C102.982 23.9883 103.97 24.2115 105.054 24.2115C105.713 24.2115 106.255 24.1159 106.68 23.9246C107.105 23.7333 107.318 23.4358 107.318 23.032C107.318 22.7344 107.211 22.5007 106.999 22.3306C106.786 22.1394 106.361 21.98 105.724 21.8525L103.492 21.4062C101.495 21.0024 100.071 20.4073 99.2205 19.6209C98.3917 18.8134 97.9772 17.7614 97.9772 16.465C97.9772 15.5936 98.2429 14.7647 98.7742 13.9784C99.3055 13.1708 100.124 12.5226 101.229 12.0338C102.334 11.5237 103.747 11.2687 105.469 11.2687C107.084 11.2687 108.508 11.5025 109.741 11.97C110.973 12.4376 111.951 13.1177 112.673 14.0103L110.091 16.9431C109.581 16.3056 108.922 15.8061 108.115 15.4448C107.307 15.0835 106.499 14.9029 105.692 14.9029C105.182 14.9029 104.746 14.956 104.385 15.0623C104.045 15.1473 103.79 15.2748 103.62 15.4448C103.45 15.6148 103.365 15.8274 103.365 16.0824C103.365 16.3587 103.492 16.6031 103.747 16.8156C104.024 17.0069 104.523 17.1769 105.246 17.3257L108.147 17.8995C109.783 18.197 110.963 18.739 111.685 19.5253C112.408 20.3117 112.769 21.2574 112.769 22.3625C112.769 23.4039 112.493 24.339 111.94 25.1679C111.388 25.9967 110.559 26.6555 109.454 27.1443C108.348 27.6119 106.956 27.8457 105.277 27.8457ZM122.243 6.51877V21.8525C122.243 22.6176 122.424 23.1701 122.785 23.5102C123.168 23.8289 123.689 23.9883 124.347 23.9883C124.858 23.9883 125.293 23.9352 125.654 23.8289C126.037 23.7014 126.377 23.5208 126.675 23.287L127.248 26.6343C126.717 27.0168 126.048 27.3144 125.24 27.5269C124.432 27.7394 123.604 27.8457 122.754 27.8457C121.542 27.8457 120.49 27.6757 119.598 27.3356C118.726 26.9956 118.046 26.4536 117.557 25.7098C117.09 24.966 116.845 23.9777 116.824 22.7451V8.01707L122.243 6.51877ZM126.993 11.5875V15.4448H114.082V11.5875H126.993ZM137.084 11.2687C138.763 11.2687 140.229 11.5981 141.483 12.257C142.758 12.8945 143.746 13.8403 144.448 15.0942C145.17 16.3268 145.532 17.8145 145.532 19.5572C145.532 21.2999 145.17 22.7982 144.448 24.0521C143.746 25.2847 142.758 26.2305 141.483 26.8893C140.229 27.5269 138.763 27.8457 137.084 27.8457C135.447 27.8457 133.992 27.5269 132.716 26.8893C131.441 26.2305 130.442 25.2847 129.72 24.0521C129.018 22.7982 128.668 21.2999 128.668 19.5572C128.668 17.8145 129.018 16.3268 129.72 15.0942C130.442 13.8403 131.441 12.8945 132.716 12.257C133.992 11.5981 135.447 11.2687 137.084 11.2687ZM137.084 15.126C136.467 15.126 135.936 15.2748 135.49 15.5723C135.044 15.8699 134.703 16.3481 134.47 17.0069C134.236 17.6657 134.119 18.5158 134.119 19.5572C134.119 20.5986 134.236 21.4487 134.47 22.1075C134.703 22.7451 135.044 23.2233 135.49 23.542C135.936 23.8396 136.467 23.9883 137.084 23.9883C137.721 23.9883 138.263 23.8396 138.71 23.542C139.156 23.2233 139.496 22.7451 139.73 22.1075C139.963 21.4487 140.08 20.5986 140.08 19.5572C140.08 18.5158 139.963 17.6657 139.73 17.0069C139.496 16.3481 139.156 15.8699 138.71 15.5723C138.263 15.2748 137.721 15.126 137.084 15.126Z" fill="white"/>
</g>
<defs>
<clipPath id="clip0_63_648">
<rect width="146.513" height="41.2903" fill="white" transform="translate(0.922485 -4.47311)"/>
</clipPath>
<clipPath id="clip1_63_648">
<rect width="32.745" height="34.8351" fill="white" transform="translate(0.731323 -0.319336)"/>
</clipPath>
</defs>
</svg>
